<?xml version="1.0" encoding="UTF-8"?>
<svg width="256px" height="256px" viewBox="0 0 256 256" version="1.1" xmlns="http://www.w3.org/2000/svg" xmlns:xlink="http://www.w3.org/1999/xlink">
    <title>Artboard</title>
    <defs>
        <linearGradient x1="50%" y1="0%" x2="50%" y2="100%" id="linearGradient-1">
            <stop stop-color="#4400FF" offset="0%"></stop>
            <stop stop-color="#331799" offset="100%"></stop>
        </linearGradient>
    </defs>
    <g id="Artboard" stroke="none" stroke-width="1" fill="none" fill-rule="evenodd">
        <rect id="Rectangle" fill="url(#linearGradient-1)" x="0" y="0" width="256" height="256" rx="55"></rect>
        <g id="icons8-amazon-music" transform="translate(27.765170, 65.333333)" fill="#FFFFFF" fill-rule="nonzero">
            <path d="M186.440164,78.2222222 C179.784164,78.2222222 171.876608,79.8791111 166.052608,84.032 C164.388608,85.2764444 164.388608,86.9333333 166.472164,86.9333333 C173.128164,86.1013333 188.111275,84.032 191.019719,87.7653333 C193.515719,91.0862222 188.104164,105.194667 185.608164,111.829333 C184.776164,113.905778 186.440164,114.318222 188.104164,113.073778 C199.339719,103.530667 202.248164,84.0248889 200.171719,81.536 C198.920164,79.4666667 193.096164,78.2222222 186.440164,78.2222222 Z" id="Path"></path>
            <path d="M2.74594154,83.9111111 C15.6170526,91.968 28.630386,99.6622222 42.2908304,105.472 C55.9014971,111.267556 70.1806082,115.413333 84.5308304,115.470222 C99.1441638,115.861333 113.985053,113.856 128.385053,110.577778 C142.83483,107.249778 156.91483,102.236444 170.745942,96.3697778 C172.552164,95.5946667 174.649942,96.4408889 175.417942,98.2471111 C176.129053,99.9182222 175.460608,101.838222 173.924608,102.734222 C160.505942,110.478222 145.992164,116.48 130.873942,120.547556 C115.713053,124.615111 100.054386,126.392889 84.2037193,126.136889 C68.0188304,125.290667 52.5237193,120.362667 38.6570526,113.187556 C24.7548304,105.976889 12.1326082,96.9031111 0.605497094,86.7555556 C-0.134058462,86.1013333 -0.205169573,84.9777778 0.441941538,84.2382222 C1.03927487,83.5768889 2.0206082,83.456 2.74594154,83.9111111 Z" id="Path"></path>
            <path d="M90.5681638,64 L87.6952749,64 C79.4748304,64 72.790386,57.3155556 72.790386,49.0951111 L72.790386,21.3333333 L79.9014971,21.3333333 L79.9014971,49.0951111 C79.9014971,53.3902222 83.4001638,56.8888889 87.6952749,56.8888889 L90.5681638,56.8888889 C94.8561638,56.8888889 101.23483,50.5102222 101.23483,46.2222222 L101.23483,39.1111111 L108.345942,39.1111111 L108.345942,46.2222222 C108.345942,54.528 98.8739415,64 90.5681638,64 Z" id="Path"></path>
            <rect id="Rectangle" x="8.79038598" y="21.3333333" width="7.11111111" height="42.6666667"></rect>
            <path d="M11.5708304,37.0488889 C11.4214971,33.5857778 12.6161638,30.7128889 14.2161638,28.1102222 C15.0481638,26.8088889 15.9654971,25.5644444 17.2597193,24.3911111 C18.6961638,23.1751111 20.3459415,22.3786667 22.038386,21.8382222 C29.0357193,19.7617778 36.3388304,24.0071111 39.3752749,30.3431111 C40.9610526,33.5502222 40.8117193,37.4115556 40.790386,39.7582222 L40.790386,47.8364444 L40.790386,64 L33.6792749,64 L33.6792749,47.8364444 L33.6792749,39.7582222 C33.6934971,36.7644444 33.7361638,35.0364444 32.9112749,33.3155556 C31.4250526,29.7742222 27.0374971,28.2026667 23.4179415,28.3093333 C20.246386,28.1742222 16.0010526,33.216 15.1192749,37.0488889 L11.5708304,37.0488889 Z" id="Path"></path>
            <path d="M35.4570526,37.0488889 C35.3077193,33.5857778 36.502386,30.7128889 38.102386,28.1102222 C38.934386,26.8088889 39.8517193,25.5644444 41.1459415,24.3911111 C42.582386,23.1751111 44.2321638,22.3786667 45.9246082,21.8382222 C52.9219415,19.7617778 60.2250526,24.0071111 63.2614971,30.3431111 C64.8472749,33.5502222 64.6979415,37.4115556 64.6766082,39.7582222 L64.6766082,47.8364444 L64.6766082,64 L57.5654971,64 L57.5654971,47.8364444 L57.5654971,39.7582222 C57.5797193,36.7644444 57.622386,35.0364444 56.7974971,33.3155556 C55.3112749,29.7742222 50.9237193,28.2026667 47.3041638,28.3093333 C44.1326082,28.1742222 39.8872749,33.216 39.0054971,37.0488889 L35.4570526,37.0488889 Z" id="Path"></path>
            <rect id="Rectangle" x="101.23483" y="21.3333333" width="7.11111111" height="42.6666667"></rect>
            <rect id="Rectangle" x="151.012608" y="21.3333333" width="7.11111111" height="42.6666667"></rect>
            <circle id="Oval" cx="154.568164" cy="7.11111111" r="7.11111111"></circle>
            <path d="M172.345942,39.9644444 L172.345942,45.3688889 C172.345942,51.6977778 177.537053,56.8888889 183.865942,56.8888889 C186.923719,56.8888889 189.839275,55.68 192.043719,53.5466667 L193.679275,51.9111111 L193.679275,61.1555556 C190.763719,63.0044444 187.421497,64 183.865942,64 C173.625942,64 165.23483,55.6088889 165.23483,45.3688889 L165.23483,39.9644444 C165.23483,29.7244444 173.625942,21.3333333 183.865942,21.3333333 C187.421497,21.3333333 190.763719,22.3288889 193.679275,24.1777778 L193.679275,33.4222222 L192.043719,31.7866667 C189.839275,29.6533333 186.923719,28.4444444 183.865942,28.4444444 C177.537053,28.4444444 172.345942,33.6355556 172.345942,39.9644444 Z" id="Path"></path>
            <path d="M124.310386,28.1244444 C123.599275,28.6222222 122.568164,30.08 122.568164,32 C122.568164,36.1244444 124.843719,37.3333333 130.817053,39.3244444 C136.363719,41.1022222 143.901497,43.6622222 143.901497,53.3333333 C143.901497,57.0311111 142.479275,60.0888889 139.705942,62.2222222 C136.221497,64.9244444 130.959275,65.7777778 125.910386,65.7777778 C122.070386,65.7777778 118.230386,65.28 115.457053,64.7822222 L115.457053,57.5288889 C122.141497,58.88 131.670386,59.52 135.297053,56.6044444 C136.008164,56.1066667 136.790386,55.2533333 136.790386,53.3333333 C136.790386,49.2088889 134.51483,48 128.541497,46.0088889 C122.99483,44.2311111 115.457053,41.6711111 115.457053,32 C115.457053,28.3022222 116.879275,25.2444444 119.652608,23.1111111 C125.839275,18.2755556 136.057942,19.5626667 142.358386,21.9448889 L142.358386,29.1982222 C135.773497,25.4008889 127.937053,25.2088889 124.310386,28.1244444 Z" id="Path"></path>
        </g>
    </g>
</svg>