<?xml version="1.0" encoding="UTF-8"?>
<svg width="512px" height="512px" viewBox="0 0 512 512" version="1.1" xmlns="http://www.w3.org/2000/svg" xmlns:xlink="http://www.w3.org/1999/xlink">
    <title>Artboard</title>
    <g id="Artboard" stroke="none" stroke-width="1" fill="none" fill-rule="evenodd">
        <g id="Apple_Music_Icon_RGB_lg_073120" fill="#FFFFFF">
            <path d="M512,160.160182 C512,154.044483 512,147.928785 511.971556,141.813087 C511.943111,136.664522 511.886222,131.515958 511.744,126.367393 C511.445333,115.145798 510.776889,103.838867 508.785778,92.7452752 C506.766222,81.4810123 503.452444,70.99899 498.247111,60.758751 C493.127111,50.7034053 486.442667,41.5156354 478.464,33.5367825 C470.485333,25.5579297 461.283556,18.8733293 451.228444,13.7532098 C441.002667,8.547755 430.520889,5.24812246 419.271111,3.21429722 C408.177778,1.22313965 396.856889,0.554679609 385.635556,0.256005973 C380.487111,0.113780433 375.338667,0.0568902163 370.190222,0.0284451082 C364.074667,0 357.959111,0 351.843556,0 L160.156444,0 C154.040889,0 147.925333,0 141.809778,0.0284451082 C136.661333,0.0568902163 131.512889,0.113780433 126.364444,0.256005973 C115.143111,0.568902163 103.822222,1.22313965 92.7288889,3.22851978 C81.4648889,5.24812246 70.9973333,8.56197756 60.7715556,13.7674324 C50.7164444,18.8875518 41.5146667,25.5721522 33.536,33.5510051 C25.5573333,41.5298579 18.8728889,50.7176279 13.7528889,60.7729736 C8.54755556,71.0132125 5.23377778,81.4952349 3.21422222,92.7594977 C1.22311111,103.85309 0.554666667,115.174243 0.256,126.381616 C0.113777778,131.53018 0.0568888889,136.678745 0.0284444444,141.827309 C0,147.928785 0,154.044483 0,160.160182 L0,351.837543 C0,357.953241 0,364.068939 0.0284444444,370.184638 C0.0568888889,375.333202 0.113777778,380.481767 0.256,385.630331 C0.554666667,396.851927 1.22311111,408.158857 3.21422222,419.252449 C5.23377778,430.516712 8.54755556,440.998734 13.7528889,451.238973 C18.8728889,461.294319 25.5573333,470.482089 33.536,478.460942 C41.5146667,486.439795 50.7164444,493.124395 60.7715556,498.244515 C70.9973333,503.449969 81.4791111,506.749602 92.7288889,508.783427 C103.822222,510.774585 115.143111,511.443045 126.364444,511.741718 C131.512889,511.883944 136.661333,511.940834 141.809778,511.969279 C147.925333,512.011947 154.040889,512 160.156444,512 L351.829333,512 C357.944889,512 364.060444,512 370.176,511.969279 C375.324444,511.940834 380.472889,511.883944 385.621333,511.741718 C396.842667,511.443045 408.163556,510.774585 419.256889,508.783427 C430.520889,506.763824 440.988444,503.449969 451.214222,498.244515 C461.269333,493.124395 470.471111,486.439795 478.449778,478.460942 C486.428444,470.482089 493.112889,461.294319 498.232889,451.238973 C503.438222,440.998734 506.752,430.516712 508.771556,419.252449 C510.762667,408.158857 511.431111,396.837704 511.729778,385.630331 C511.872,380.481767 511.928889,375.333202 511.957333,370.184638 C512,364.068939 511.985778,357.953241 511.985778,351.837543 L511.985778,160.160182 L512,160.160182 Z" id="Path"></path>
        </g>
        <g id="4691505_tidal_icon" transform="translate(86.000000, 164.000000)" fill="#000000" fill-rule="nonzero">
            <path d="M170.17,0 L113.446667,56.75 L56.7233333,0 L0,56.75 L56.7233333,113.5 L113.446667,56.75 L170.17,113.5 L113.446667,170.25 L170.17,227 L226.893333,170.25 L170.17,113.5 L226.893333,56.75 L170.17,0 Z M227.261667,56.75 L283.630833,0.354333167 L340,56.75 L283.630833,113.145667 L227.261667,56.75 Z" id="Shape"></path>
        </g>
    </g>
</svg>