<?xml version="1.0" encoding="UTF-8"?>
<svg width="361px" height="361px" viewBox="0 0 361 361" version="1.1" xmlns="http://www.w3.org/2000/svg" xmlns:xlink="http://www.w3.org/1999/xlink">
    <title>Artboard</title>
    <g id="Artboard" stroke="none" stroke-width="1" fill="none" fill-rule="evenodd">
        <g id="Apple_Music_Icon_RGB_lg_073120" fill="#1DB954">
            <path d="M361,112.92544 C361,108.613395 361,104.30135 360.979944,99.9893053 C360.959889,96.359165 360.919778,92.7290248 360.8195,89.0988845 C360.608917,81.1867832 360.137611,73.2145139 358.733722,65.3926647 C357.309778,57.4504794 354.973306,50.0598347 351.303139,42.8396663 C347.693139,35.7498619 342.980083,29.2717663 337.3545,23.6460517 C331.728917,18.0203371 325.240944,13.3071716 318.151306,9.69708738 C310.941333,6.02683507 303.550861,3.70033634 295.618889,2.26633066 C287.797222,0.862409012 279.815111,0.391092459 271.903194,0.180504212 C268.273139,0.0802240941 264.643083,0.0401120471 261.013028,0.0200560235 C256.701083,0 252.389139,0 248.077194,0 L112.922806,0 C108.610861,0 104.298917,0 99.9869722,0.0200560235 C96.3569167,0.0401120471 92.7268611,0.0802240941 89.0968056,0.180504212 C81.1848889,0.401120471 73.2027778,0.862409012 65.3811111,2.27635867 C57.4391111,3.70033634 50.0586667,6.03686308 42.8486944,9.70711539 C35.7590556,13.3171996 29.2710833,18.0303652 23.6455,23.6560798 C18.0199167,29.2817944 13.3068611,35.75989 9.69686111,42.8496943 C6.02669444,50.0698627 3.69022222,57.4605074 2.26627778,65.4026927 C0.862388889,73.2245419 0.391083333,81.2068393 0.1805,89.1089125 C0.0802222222,92.7390528 0.0401111111,96.3691931 0.0200555556,99.9993333 C0,104.30135 0,108.613395 0,112.92544 L0,248.072955 C0,252.385 0,256.697045 0.0200555556,261.00909 C0.0401111111,264.63923 0.0802222222,268.269371 0.1805,271.899511 C0.391083333,279.811612 0.862388889,287.783882 2.26627778,295.605731 C3.69022222,303.547916 6.02669444,310.938561 9.69686111,318.158729 C13.3068611,325.248534 18.0199167,331.726629 23.6455,337.352344 C29.2710833,342.978058 35.7590556,347.691224 42.8486944,351.301308 C50.0586667,354.97156 57.4491389,357.298059 65.3811111,358.732065 C73.2027778,360.135987 81.1848889,360.607303 89.0968056,360.817891 C92.7268611,360.918171 96.3569167,360.958283 99.9869722,360.978339 C104.298917,361.008424 108.610861,361 112.922806,361 L248.067167,361 C252.379111,361 256.691056,361 261.003,360.978339 C264.633056,360.958283 268.263111,360.918171 271.893167,360.817891 C279.805083,360.607303 287.787194,360.135987 295.608861,358.732065 C303.550861,357.308087 310.931306,354.97156 318.141278,351.301308 C325.230917,347.691224 331.718889,342.978058 337.344472,337.352344 C342.970056,331.726629 347.683111,325.248534 351.293111,318.158729 C354.963278,310.938561 357.29975,303.547916 358.723694,295.605731 C360.127583,287.783882 360.598889,279.801584 360.809472,271.899511 C360.90975,268.269371 360.949861,264.63923 360.969917,261.00909 C361,256.697045 360.989972,252.385 360.989972,248.072955 L360.989972,112.92544 L361,112.92544 Z" id="Path"></path>
        </g>
        <path d="M255.715393,165.47412 C214.455689,140.971108 146.398729,138.718133 107.01141,150.672351 C100.685044,152.592118 93.9964296,149.021596 92.0812481,142.696759 C90.1645381,136.367336 93.7304746,129.683307 100.059897,127.760483 C145.275299,114.036289 220.436619,116.686668 267.935565,144.88248 C273.626084,148.260414 275.490826,155.607802 272.119006,161.287622 C268.744129,166.976613 261.390627,168.852054 255.715393,165.47412 M254.364219,201.766274 C251.469284,206.463284 245.327864,207.936735 240.636969,205.0525 C206.240126,183.90908 153.785858,177.782944 113.090162,190.136094 C107.81386,191.730295 102.239505,188.75588 100.636133,183.48722 C99.046517,178.210918 102.022461,172.647262 107.291121,171.042361 C153.779744,156.93452 211.572982,163.766812 251.081051,188.046666 C255.771946,190.935488 257.248455,197.079964 254.364219,201.766274 M238.701917,236.620132 C236.40156,240.392413 231.490563,241.573925 227.732039,239.275096 C197.674542,220.904333 159.841683,216.756047 115.286583,226.932646 C110.993092,227.916985 106.713357,225.226865 105.735132,220.934902 C104.750793,216.641411 107.431741,212.361676 111.734403,211.381922 C160.492814,200.236269 202.316526,205.032629 236.054595,225.648725 C239.816177,227.946026 241.000746,232.860079 238.701917,236.620132 M179.999236,52 C109.308711,52 52,109.307182 52,179.997707 C52,250.695875 109.308711,308 179.999236,308 C250.692818,308 308,250.695875 308,179.997707 C308,109.307182 250.692818,52 179.999236,52" id="Spotify_Icon_RGB_White" fill="#FFFFFF"></path>
    </g>
</svg>