<?xml version="1.0" encoding="UTF-8"?>
<svg width="512px" height="512px" viewBox="0 0 512 512" version="1.1" xmlns="http://www.w3.org/2000/svg" xmlns:xlink="http://www.w3.org/1999/xlink">
    <title>Artboard</title>
    <defs>
        <linearGradient x1="50.4898007%" y1="67.3077782%" x2="49.5495621%" y2="32.4864937%" id="linearGradient-1">
            <stop stop-color="#358C7B" offset="0%"></stop>
            <stop stop-color="#33A65E" offset="52.56%"></stop>
        </linearGradient>
        <linearGradient x1="-1.47012434%" y1="65.2666951%" x2="101.515465%" y2="34.7483111%" id="linearGradient-2">
            <stop stop-color="#222B90" offset="0%"></stop>
            <stop stop-color="#367B99" offset="100%"></stop>
        </linearGradient>
        <linearGradient x1="0.0182880653%" y1="50.0387829%" x2="99.9346517%" y2="50.0387829%" id="linearGradient-3">
            <stop stop-color="#FF9900" offset="0%"></stop>
            <stop stop-color="#FF8000" offset="100%"></stop>
        </linearGradient>
        <linearGradient x1="0.111388298%" y1="50.0387829%" x2="100.027752%" y2="50.0387829%" id="linearGradient-4">
            <stop stop-color="#FF8000" offset="0%"></stop>
            <stop stop-color="#CC1953" offset="100%"></stop>
        </linearGradient>
        <linearGradient x1="-0.0286117016%" y1="50.0387829%" x2="99.8877519%" y2="50.0387829%" id="linearGradient-5">
            <stop stop-color="#CC1953" offset="0%"></stop>
            <stop stop-color="#241284" offset="100%"></stop>
        </linearGradient>
        <linearGradient x1="-0.0537885315%" y1="50.0387829%" x2="99.8625751%" y2="50.0387829%" id="linearGradient-6">
            <stop stop-color="#222B90" offset="0%"></stop>
            <stop stop-color="#3559A6" offset="100%"></stop>
        </linearGradient>
        <linearGradient x1="-3.97231911%" y1="59.174541%" x2="103.831459%" y2="40.8404651%" id="linearGradient-7">
            <stop stop-color="#CC1953" offset="0%"></stop>
            <stop stop-color="#241284" offset="100%"></stop>
        </linearGradient>
        <linearGradient x1="-3.44503646%" y1="38.679454%" x2="103.584177%" y2="61.3358004%" id="linearGradient-8">
            <stop stop-color="#FFCC00" offset="0.2669841%"></stop>
            <stop stop-color="#CE1938" offset="99.99%"></stop>
        </linearGradient>
        <linearGradient x1="8.50948676%" y1="27.6978501%" x2="91.6296535%" y2="72.3060166%" id="linearGradient-9">
            <stop stop-color="#FFD100" offset="0.2669841%"></stop>
            <stop stop-color="#FD5A22" offset="100%"></stop>
        </linearGradient>
    </defs>
    <g id="Artboard" stroke="none" stroke-width="1" fill="none" fill-rule="evenodd">
        <g id="Apple_Music_Icon_RGB_lg_073120" fill="#26303C">
            <path d="M512,160.160182 C512,154.044483 512,147.928785 511.971556,141.813087 C511.943111,136.664522 511.886222,131.515958 511.744,126.367393 C511.445333,115.145798 510.776889,103.838867 508.785778,92.7452752 C506.766222,81.4810123 503.452444,70.99899 498.247111,60.758751 C493.127111,50.7034053 486.442667,41.5156354 478.464,33.5367825 C470.485333,25.5579297 461.283556,18.8733293 451.228444,13.7532098 C441.002667,8.547755 430.520889,5.24812246 419.271111,3.21429722 C408.177778,1.22313965 396.856889,0.554679609 385.635556,0.256005973 C380.487111,0.113780433 375.338667,0.0568902163 370.190222,0.0284451082 C364.074667,0 357.959111,0 351.843556,0 L160.156444,0 C154.040889,0 147.925333,0 141.809778,0.0284451082 C136.661333,0.0568902163 131.512889,0.113780433 126.364444,0.256005973 C115.143111,0.568902163 103.822222,1.22313965 92.7288889,3.22851978 C81.4648889,5.24812246 70.9973333,8.56197756 60.7715556,13.7674324 C50.7164444,18.8875518 41.5146667,25.5721522 33.536,33.5510051 C25.5573333,41.5298579 18.8728889,50.7176279 13.7528889,60.7729736 C8.54755556,71.0132125 5.23377778,81.4952349 3.21422222,92.7594977 C1.22311111,103.85309 0.554666667,115.174243 0.256,126.381616 C0.113777778,131.53018 0.0568888889,136.678745 0.0284444444,141.827309 C0,147.928785 0,154.044483 0,160.160182 L0,351.837543 C0,357.953241 0,364.068939 0.0284444444,370.184638 C0.0568888889,375.333202 0.113777778,380.481767 0.256,385.630331 C0.554666667,396.851927 1.22311111,408.158857 3.21422222,419.252449 C5.23377778,430.516712 8.54755556,440.998734 13.7528889,451.238973 C18.8728889,461.294319 25.5573333,470.482089 33.536,478.460942 C41.5146667,486.439795 50.7164444,493.124395 60.7715556,498.244515 C70.9973333,503.449969 81.4791111,506.749602 92.7288889,508.783427 C103.822222,510.774585 115.143111,511.443045 126.364444,511.741718 C131.512889,511.883944 136.661333,511.940834 141.809778,511.969279 C147.925333,512.011947 154.040889,512 160.156444,512 L351.829333,512 C357.944889,512 364.060444,512 370.176,511.969279 C375.324444,511.940834 380.472889,511.883944 385.621333,511.741718 C396.842667,511.443045 408.163556,510.774585 419.256889,508.783427 C430.520889,506.763824 440.988444,503.449969 451.214222,498.244515 C461.269333,493.124395 470.471111,486.439795 478.449778,478.460942 C486.428444,470.482089 493.112889,461.294319 498.232889,451.238973 C503.438222,440.998734 506.752,430.516712 508.771556,419.252449 C510.762667,408.158857 511.431111,396.837704 511.729778,385.630331 C511.872,380.481767 511.928889,375.333202 511.957333,370.184638 C512,364.068939 511.985778,357.953241 511.985778,351.837543 L511.985778,160.160182 L512,160.160182 Z" id="Path"></path>
        </g>
        <g id="Deezer_logo" transform="translate(90.000000, 95.000000)">
            <rect id="rect8185" fill="#40AB5D" x="259" y="0" width="72" height="42"></rect>
            <rect id="rect8192" fill="url(#linearGradient-1)" x="259" y="58" width="72" height="42"></rect>
            <rect id="rect8199" fill="url(#linearGradient-2)" x="259" y="116" width="72" height="42"></rect>
            <rect id="rect8206" fill="url(#linearGradient-3)" x="0" y="174" width="72" height="42"></rect>
            <rect id="rect8213" fill="url(#linearGradient-4)" x="86" y="174" width="72" height="42"></rect>
            <rect id="rect8220" fill="url(#linearGradient-5)" x="173" y="174" width="72" height="42"></rect>
            <rect id="rect8227" fill="url(#linearGradient-6)" x="259" y="174" width="72" height="42"></rect>
            <rect id="rect8234" fill="url(#linearGradient-7)" x="173" y="116" width="72" height="42"></rect>
            <rect id="rect8241" fill="url(#linearGradient-8)" x="86" y="116" width="72" height="42"></rect>
            <rect id="rect8248" fill="url(#linearGradient-9)" x="86" y="58" width="72" height="42"></rect>
        </g>
        <g id="Deezer_logo" transform="translate(91.000000, 332.000000)" fill="#FFFFFF" fill-rule="nonzero">
            <path d="M0,55.1450262 C0,72.5706806 10.8017493,83 26.851312,83 C34.8542274,83 41.5889213,80.7837696 45.3498542,74.960733 L45.3498542,83 L60,83 L60,0 L44.7813411,0 L44.7813411,35.2858639 C41.3265306,29.4628272 34.941691,26.8554974 26.9387755,26.8554974 C11.2827988,26.8120419 0,37.4586387 0,55.1450262 L0,55.1450262 Z M45.2623907,55.1450262 C45.2623907,65.0963351 38.4402332,71.3104712 30.2623907,71.3104712 C21.7784257,71.3104712 15.2623907,65.0963351 15.2623907,55.1450262 C15.2623907,45.0198953 21.8221574,38.6753927 30.2623907,38.6753927 C38.4402332,38.6753927 45.2623907,45.1068063 45.2623907,55.1450262 Z" id="path8175"></path>
            <path d="M106.11042,60.6378378 C104.368585,67.0378378 99.970451,70.2378378 93.0466563,70.2378378 C84.9906687,70.2378378 78.3716952,65.3945946 78.1975117,56.8324324 L116.387247,56.8324324 C116.866252,54.7135135 117.083981,52.4648649 117.083981,50 C117.083981,34.6486486 106.545879,26 91,26 C74.4090202,26 63,37.7189189 63,53.6324324 C63,71.3621622 75.5847589,82 93.0031104,82 C106.153966,82 115.080871,76.5513514 119,65.6972973 L106.11042,60.6378378 Z M78.1975117,46.8 C79.6345257,40.6162162 84.8164852,36.9837838 91.0435459,36.9837838 C97.836703,36.9837838 102.452566,40.6162162 102.452566,46.3243243 L102.365474,46.8 L78.1975117,46.8 Z" id="path8177"></path>
            <path d="M162.11042,60.6378378 C160.368585,67.0378378 155.970451,70.2378378 149.046656,70.2378378 C140.990669,70.2378378 134.371695,65.3945946 134.197512,56.8324324 L172.387247,56.8324324 C172.866252,54.7135135 173.083981,52.4648649 173.083981,50 C173.083981,34.6486486 162.545879,26 147,26 C130.40902,26 119,37.7189189 119,53.6324324 C119,71.3621622 131.584759,82 149.00311,82 C162.153966,82 171.080871,76.5513514 175,65.6972973 L162.11042,60.6378378 Z M134.197512,46.8 C135.634526,40.6162162 140.816485,36.9837838 147.043546,36.9837838 C153.836703,36.9837838 158.452566,40.6162162 158.452566,46.3243243 L158.365474,46.8 L134.197512,46.8 Z" id="path8179"></path>
            <polygon id="path8181" points="225 82 225 68.3783784 193.680377 68.3783784 224.143102 38.4540541 224.143102 26 175.942588 26 175.942588 38.972973 205.377035 38.972973 175 69.027027 175 82"></polygon>
            <path d="M269.11042,60.6378378 C267.368585,67.0378378 262.970451,70.2378378 256.046656,70.2378378 C247.990669,70.2378378 241.371695,65.3945946 241.197512,56.8324324 L279.387247,56.8324324 C279.866252,54.7135135 280.083981,52.4648649 280.083981,50 C280.083981,34.6486486 269.545879,26 254,26 C237.40902,26 226,37.7189189 226,53.6324324 C226,71.3621622 238.584759,82 256.00311,82 C269.153966,82 278.080871,76.5513514 282,65.6972973 L269.11042,60.6378378 Z M241.197512,46.8 C242.634526,40.6162162 247.816485,36.9837838 254.043546,36.9837838 C260.836703,36.9837838 265.452566,40.6162162 265.452566,46.3243243 L265.365474,46.8 L241.197512,46.8 Z" id="path8183"></path>
            <path d="M316.232333,45.2730085 C316.232333,45.8360402 316.232333,46.8754834 316.232333,46.8754834 L331,46.8754834 C331,46.8754834 331,44.103635 331,42.5877804 C331,32.9729312 324.944821,26 314.794773,26 C308.260407,26 303.642788,29.1616396 301.246854,34.4021655 L301.246854,26 L286,26 L286,82 L301.246854,82 L301.246854,45.9226605 C301.246854,40.2057231 304.339787,37.0440835 309.088093,37.0440835 C313.444337,37.0873937 316.232333,41.158546 316.232333,45.2730085 Z" id="path8250"></path>
        </g>
    </g>
</svg>