<?xml version="1.0" encoding="UTF-8"?>
<svg width="361px" height="361px" viewBox="0 0 361 361" version="1.1" xmlns="http://www.w3.org/2000/svg" xmlns:xlink="http://www.w3.org/1999/xlink">
    <title>Artboard</title>
    <g id="Artboard" stroke="none" stroke-width="1" fill="none" fill-rule="evenodd">
        <g id="Apple_Music_Icon_RGB_lg_073120" fill="#191414">
            <path d="M361,112.92544 C361,108.613395 361,104.30135 360.979944,99.9893053 C360.959889,96.359165 360.919778,92.7290248 360.8195,89.0988845 C360.608917,81.1867832 360.137611,73.2145139 358.733722,65.3926647 C357.309778,57.4504794 354.973306,50.0598347 351.303139,42.8396663 C347.693139,35.7498619 342.980083,29.2717663 337.3545,23.6460517 C331.728917,18.0203371 325.240944,13.3071716 318.151306,9.69708738 C310.941333,6.02683507 303.550861,3.70033634 295.618889,2.26633066 C287.797222,0.862409012 279.815111,0.391092459 271.903194,0.180504212 C268.273139,0.0802240941 264.643083,0.0401120471 261.013028,0.0200560235 C256.701083,0 252.389139,0 248.077194,0 L112.922806,0 C108.610861,0 104.298917,0 99.9869722,0.0200560235 C96.3569167,0.0401120471 92.7268611,0.0802240941 89.0968056,0.180504212 C81.1848889,0.401120471 73.2027778,0.862409012 65.3811111,2.27635867 C57.4391111,3.70033634 50.0586667,6.03686308 42.8486944,9.70711539 C35.7590556,13.3171996 29.2710833,18.0303652 23.6455,23.6560798 C18.0199167,29.2817944 13.3068611,35.75989 9.69686111,42.8496943 C6.02669444,50.0698627 3.69022222,57.4605074 2.26627778,65.4026927 C0.862388889,73.2245419 0.391083333,81.2068393 0.1805,89.1089125 C0.0802222222,92.7390528 0.0401111111,96.3691931 0.0200555556,99.9993333 C0,104.30135 0,108.613395 0,112.92544 L0,248.072955 C0,252.385 0,256.697045 0.0200555556,261.00909 C0.0401111111,264.63923 0.0802222222,268.269371 0.1805,271.899511 C0.391083333,279.811612 0.862388889,287.783882 2.26627778,295.605731 C3.69022222,303.547916 6.02669444,310.938561 9.69686111,318.158729 C13.3068611,325.248534 18.0199167,331.726629 23.6455,337.352344 C29.2710833,342.978058 35.7590556,347.691224 42.8486944,351.301308 C50.0586667,354.97156 57.4491389,357.298059 65.3811111,358.732065 C73.2027778,360.135987 81.1848889,360.607303 89.0968056,360.817891 C92.7268611,360.918171 96.3569167,360.958283 99.9869722,360.978339 C104.298917,361.008424 108.610861,361 112.922806,361 L248.067167,361 C252.379111,361 256.691056,361 261.003,360.978339 C264.633056,360.958283 268.263111,360.918171 271.893167,360.817891 C279.805083,360.607303 287.787194,360.135987 295.608861,358.732065 C303.550861,357.308087 310.931306,354.97156 318.141278,351.301308 C325.230917,347.691224 331.718889,342.978058 337.344472,337.352344 C342.970056,331.726629 347.683111,325.248534 351.293111,318.158729 C354.963278,310.938561 357.29975,303.547916 358.723694,295.605731 C360.127583,287.783882 360.598889,279.801584 360.809472,271.899511 C360.90975,268.269371 360.949861,264.63923 360.969917,261.00909 C361,256.697045 360.989972,252.385 360.989972,248.072955 L360.989972,112.92544 L361,112.92544 Z" id="Path"></path>
        </g>
        <path d="M256.715393,166.47412 C215.455689,141.971108 147.398729,139.718133 108.01141,151.672351 C101.685044,153.592118 94.9964296,150.021596 93.0812481,143.696759 C91.1645381,137.367336 94.7304746,130.683307 101.059897,128.760483 C146.275299,115.036289 221.436619,117.686668 268.935565,145.88248 C274.626084,149.260414 276.490826,156.607802 273.119006,162.287622 C269.744129,167.976613 262.390627,169.852054 256.715393,166.47412 M255.364219,202.766274 C252.469284,207.463284 246.327864,208.936735 241.636969,206.0525 C207.240126,184.90908 154.785858,178.782944 114.090162,191.136094 C108.81386,192.730295 103.239505,189.75588 101.636133,184.48722 C100.046517,179.210918 103.022461,173.647262 108.291121,172.042361 C154.779744,157.93452 212.572982,164.766812 252.081051,189.046666 C256.771946,191.935488 258.248455,198.079964 255.364219,202.766274 M239.701917,237.620132 C237.40156,241.392413 232.490563,242.573925 228.732039,240.275096 C198.674542,221.904333 160.841683,217.756047 116.286583,227.932646 C111.993092,228.916985 107.713357,226.226865 106.735132,221.934902 C105.750793,217.641411 108.431741,213.361676 112.734403,212.381922 C161.492814,201.236269 203.316526,206.032629 237.054595,226.648725 C240.816177,228.946026 242.000746,233.860079 239.701917,237.620132 M180.999236,53 C110.308711,53 53,110.307182 53,180.997707 C53,251.695875 110.308711,309 180.999236,309 C251.692818,309 309,251.695875 309,180.997707 C309,110.307182 251.692818,53 180.999236,53" id="Spotify_Icon_RGB_Green" fill="#1ED760"></path>
    </g>
</svg>