<?xml version="1.0" encoding="UTF-8"?>
<svg width="256px" height="256px" viewBox="0 0 256 256" version="1.1" xmlns="http://www.w3.org/2000/svg" xmlns:xlink="http://www.w3.org/1999/xlink">
    <title>icon-512</title>
    <defs>
        <path d="M255.98249,70.6106611 C255.96699,68.0503962 255.93724,65.4908813 255.86824,62.9313664 C255.717239,57.3543339 255.388737,51.7285512 254.396481,46.2132691 C253.390475,40.6184865 251.747716,35.4109562 249.158951,30.3274266 C246.613686,25.3308975 243.289166,20.7586209 239.322643,16.7945978 C235.35687,12.8305747 230.783344,9.50830536 225.785065,6.96479055 C220.696035,4.37527547 215.483005,2.73301591 209.881722,1.72751006 C204.36569,0.737004291 198.738907,0.408502378 193.161125,0.257751501 C190.60011,0.188501097 188.039345,0.159250927 185.47758,0.143500835 C182.436812,0.125000728 179.395794,0.126250735 176.355027,0.126250735 L141.047321,0 L114.639667,0 L79.9569655,0.126750738 C76.9099478,0.126750738 73.86318,0.125000728 70.8164123,0.143500835 C68.2496474,0.159250927 65.6841324,0.188751099 63.1181175,0.257751501 C57.5273349,0.408502378 51.8878021,0.737254292 46.3585199,1.72876007 C40.7499873,2.73426592 35.5294569,4.37602548 30.4334272,6.96354054 C25.424398,9.50730535 20.8411213,12.8300747 16.8670982,16.7945978 C12.8935751,20.7581209 9.56280568,25.3293975 7.01304083,30.3251766 C4.41727572,35.4112062 2.77101613,40.6214865 1.76276026,46.2197691 C0.76950448,51.7328012 0.440752566,57.3565839 0.289501686,62.9313664 C0.220251282,65.4911313 0.190751111,68.0506462 0.175001019,70.6106611 C0.15625091,73.6501788 0,77.4262008 0,80.4652185 L0,114.667918 L0,141.358073 L0.15800092,176.286776 C0.15800092,179.330294 0.156500911,182.373812 0.175001019,185.41708 C0.190751111,187.980844 0.220251282,190.544109 0.289751687,193.106874 C0.440752566,198.691657 0.770254485,204.32494 1.76401027,209.847972 C2.77226614,215.450504 4.41777572,220.664785 7.01179082,225.755314 C9.56205567,230.758844 12.8930751,235.33737 16.8670982,239.306893 C20.8408713,243.275916 25.423148,246.602936 30.4311772,249.150201 C35.5297069,251.742966 40.7532373,253.387475 46.3652699,254.394231 C51.8918021,255.386237 57.5295849,255.714989 63.1181175,255.86599 C65.6841324,255.93524 68.2498974,255.96474 70.8166623,255.98049 C73.86343,255.99874 76.9101978,255.99874 79.9569655,255.99874 L114.953419,255.99874 L141.426323,255.99874 L176.355027,255.99874 C179.396294,255.99874 182.437062,255.99874 185.47783,255.98049 C188.039345,255.96474 190.60011,255.93499 193.161125,255.86599 C198.741157,255.714989 204.36994,255.385737 209.888472,254.392981 C215.486005,253.386225 220.696285,251.742216 225.782565,249.151201 C230.782094,246.603936 235.35637,243.276416 239.322643,239.306893 C243.288666,235.33787 246.612936,230.760094 249.157701,225.757314 C251.748466,220.664535 253.391475,215.447254 254.397981,209.841472 C255.388987,204.32069 255.717239,198.689157 255.86824,193.106874 C255.93724,190.543859 255.96699,187.980844 255.98249,185.41708 C256,182.373562 256,179.330294 256,176.286776 C256,176.286776 256,141.974577 256,141.358073 L256,114.639917 C256,114.184415 256,79.7284642 256,79.7284642 C256,76.6891965 256,73.6499288 255.98249,70.6106611 Z" id="path-1"></path>
        <linearGradient x1="50%" y1="-5.4640089%" x2="50%" y2="102.228233%" id="linearGradient-3">
            <stop stop-color="#B971D6" offset="0%"></stop>
            <stop stop-color="#7B11A7" offset="100%"></stop>
        </linearGradient>
    </defs>
    <g id="icon-512" stroke="none" stroke-width="1" fill="none" fill-rule="evenodd">
        <g id="Group">
            <mask id="mask-2" fill="white">
                <use xlink:href="#path-1"></use>
            </mask>
            <use id="Mask" fill="#000000" xlink:href="#path-1"></use>
            <g mask="url(#mask-2)" id="iOS-App-Icon">
                <g transform="translate(0.000000, -0.000275)">
                    <rect id="Background" fill="url(#linearGradient-3)" x="0" y="0" width="256.00149" height="256.00149"></rect>
                    <g id="main-vector-128" transform="translate(56.250328, 60.250351)" fill="#FFFFFF" fill-rule="nonzero">
                        <path d="M15.7500917,78.8752363 L15.7500917,47.3754988 C15.7500917,43.0265795 12.2250297,39.50023 7.87471146,39.50023 C3.52506192,39.50023 0,43.0265795 0,47.3754988 L0,78.8752363 C0,83.2251587 3.52506192,86.7505051 7.87471146,86.7505051 C12.2250297,86.7505051 15.7500917,83.2251587 15.7500917,78.8752363 Z" id="Path"></path>
                        <path d="M41.2502402,111.634406 L41.2502402,19.8660263 C41.2502402,15.5222496 37.7257722,12.0000699 33.3753615,12.0000699 C29.0249508,12.0000699 25.5001485,15.5219156 25.5001485,19.8660263 L25.5001485,111.63474 C25.5001485,115.979518 29.0252853,119.500696 33.3756959,119.500696 C37.7261065,119.500696 41.2502402,115.979184 41.2502402,111.634406 Z" id="Path"></path>
                        <path d="M66.5003872,97.8758823 L66.5003872,47.1252964 C66.5003872,42.7764881 62.9753253,39.2502285 58.625007,39.2502285 C54.2746887,39.2502285 50.7502955,42.7761537 50.7502955,47.1252964 L50.7502955,97.8755479 C50.7502955,102.225025 54.2746887,105.750616 58.625007,105.750616 C62.9753253,105.750616 66.5003872,102.225025 66.5003872,97.8758823 Z" id="Path"></path>
                        <path d="M135.625622,55.2503217 C131.274728,55.2503217 127.750744,58.7612929 127.750744,63.0919902 L127.750744,106.658998 C127.750744,110.990028 131.274728,114.500667 135.625622,114.500667 C139.975514,114.500667 143.500835,110.990028 143.500835,106.658998 L143.500835,63.0919902 C143.500835,58.7612929 139.975514,55.2503217 135.625622,55.2503217 Z" id="Path"></path>
                        <path d="M110.124805,0 C105.774878,0 102.250595,3.52760943 102.250595,7.87882953 L102.250595,127.371958 C102.250595,131.72485 105.774878,135.250787 110.124805,135.250787 C114.476404,135.250787 118.000687,131.72485 118.000687,127.371958 L118.000687,7.87882953 C118.000352,3.52794396 114.473728,0 110.124805,0 Z" id="Path"></path>
                        <path d="M84.8751598,114.500667 C89.2262964,114.500667 92.75054,110.98112 92.75054,106.6391 L92.75054,30.8617007 C92.75054,26.5203481 89.2262964,23.0001339 84.8751598,23.0001339 C80.5256949,23.0001339 77.0004483,26.5200143 77.0004483,30.8617007 L77.0004483,106.6391 C77.0004483,110.98112 80.5256949,114.500667 84.8751598,114.500667 Z" id="Path"></path>
                    </g>
                </g>
            </g>
        </g>
    </g>
</svg>