<?xml version="1.0" encoding="UTF-8"?>
<svg width="32px" height="32px" viewBox="0 0 32 32" version="1.1" xmlns="http://www.w3.org/2000/svg" xmlns:xlink="http://www.w3.org/1999/xlink">
    <title>Artboard</title>
    <g id="Artboard" stroke="none" stroke-width="1" fill="none" fill-rule="evenodd">
        <g id="Group" transform="translate(-0.000000, -0.000000)" fill-rule="nonzero">
            <path d="M16.000027,32.0000412 C18.18911,32.0000412 20.2491298,31.5818495 22.1800865,30.7454661 C24.1110431,29.9090594 25.8122428,28.7551339 27.2836856,27.2836897 C28.7551283,25.8122463 29.9090414,24.1110484 30.7454248,22.180096 C31.5818083,20.2491605 32,18.1891406 32,16.0000365 C32,13.8109323 31.5818083,11.7509125 30.7454248,9.81997699 C29.9090414,7.88902032 28.7551283,6.18782062 27.2836856,4.71637789 C25.8122428,3.24493515 24.1084631,2.09101149 22.1723465,1.25460689 C20.2362298,0.418202297 18.17363,0 15.984547,0 C13.7954429,0 11.7354124,0.418202297 9.80445578,1.25460689 C7.87352027,2.09101149 6.17491113,3.24493515 4.70862839,4.71637789 C3.24234564,6.18782062 2.09100197,7.88902032 1.25459737,9.81997699 C0.418199125,11.7509125 0,13.8109323 0,16.0000365 C0,18.1891406 0.418199125,20.2491605 1.25459737,22.180096 C2.09100197,24.1110484 3.24492563,25.8122463 4.71636837,27.2836897 C6.18781111,28.7551339 7.88901081,29.9090594 9.81996747,30.7454661 C11.750903,31.5818495 13.8109228,32.0000412 16.000027,32.0000412 Z" id="Path" fill="#FF0000"></path>
            <path d="M16.0309869,7.72897608 C16.4440398,7.72897608 16.7847999,7.86062981 17.0532674,8.12393728 C17.3217349,8.38724474 17.4559686,8.72541434 17.4559686,9.13844608 L17.4559686,16.6970474 L17.3010738,20.0426234 L18.7725271,18.1994606 L20.55377,16.3407861 C20.8015764,16.0619986 21.1268354,15.9226049 21.5295472,15.9226049 C21.911619,15.9226049 22.2291486,16.0465081 22.4821361,16.2943145 C22.7351025,16.542142 22.8615856,16.851921 22.8615856,17.2236517 C22.8615856,17.6057235 22.7325119,17.9309931 22.4743644,18.1994606 L17.1616906,23.5895977 C16.820941,23.9406736 16.4440398,24.1162116 16.0309869,24.1162116 C15.6076352,24.1162116 15.2255845,23.9406736 14.8848349,23.5895977 L9.5721294,18.1994606 C9.31398192,17.9413131 9.18490818,17.6160435 9.18490818,17.2236517 C9.18490818,16.851921 9.30882193,16.542142 9.55664943,16.2943145 C9.80447693,16.0465081 10.119416,15.9226049 10.5014667,15.9226049 C10.8938584,15.9226049 11.2191281,16.0619986 11.4772755,16.3407861 L13.2739668,18.2149406 L14.7299401,20.0271435 L14.5750453,16.6970474 L14.5750453,9.13844608 C14.5750453,8.72541434 14.711859,8.38724474 14.9854864,8.12393728 C15.259135,7.86062981 15.6076352,7.72897608 16.0309869,7.72897608 Z" id="Path" fill="#FFFFFF"></path>
        </g>
    </g>
</svg>